# xmcd
#
# Track frame offsets:
#	150
#	14385
#	25735
#	43586
#	68568
#	81623
#	96016
#	109206
#
# Disc length: 1746 seconds
#
# Revision: 14
# Processed by: cddbd v1.5.2PL0 Copyright (c) Steve Scherf et al.
# Submitted via: Jack! The Knife 20 Magnifico
#
DISCID=5f06d008
DTITLE=Saxon - Saxon
DYEAR=1979
DGENRE=Heavy Metal
TTITLE0=Rainbow Theme
TTITLE1=Frozen Rainbow
TTITLE2=Big Teaser
TTITLE3=Judgement Day
TTITLE4=Stallions Of The Highway
TTITLE5=Backs To The Wall
TTITLE6=Still Fit To Boogie
TTITLE7=Militia Guard
EXTD=John Verity
EXTT0=Byford, Quinn, Oliver, Dawson, Gill
EXTT1=Byford, Quinn, Oliver, Dawson, Gill
EXTT2=Byford, Quinn, Oliver, Dawson, Gill
EXTT3=Byford, Quinn, Oliver, Dawson, Gill
EXTT4=Byford, Quinn, Oliver, Dawson, Gill
EXTT5=Byford, Quinn, Oliver, Dawson, Gill
EXTT6=Byford, Quinn, Oliver, Dawson, Gill
EXTT7=Byford, Quinn, Oliver, Dawson, Gill
PLAYORDER=
